PathFileType	4	(X/Y/Z)	Kaydara	
DataRate	CameraRate	NumFrames	NumMarkers	Units	OrigDataRate	OrigDataStartFrame	OrigNumFrames	
240.00	240.00	4	72	mm	240.00	45	355	
Frame#	Time	Hips			RightUpLeg			RightLeg			RightFoot			RightFoot_End			LeftUpLeg			LeftLeg			LeftFoot			LeftFoot_End			Spine			Spine1			Spine2			Spine3			Neck			Head			Head_End			RightShoulder			RightArm			RightForeArm			RightHand			RightHandThumb1			RightHandThumb2			RightHandThumb3			RightHandThumb3_End			RightInHandIndex			RightHandIndex1			RightHandIndex2			RightHandIndex3			RightHandIndex3_End			RightInHandMiddle			RightHandMiddle1			RightHandMiddle2			RightHandMiddle3			RightHandMiddle3_End			RightInHandRing			RightHandRing1			RightHandRing2			RightHandRing3			RightHandRing3_End			RightInHandPinky			RightHandPinky1			RightHandPinky2			RightHandPinky3			RightHandPinky3_End			LeftShoulder			LeftArm			LeftForeArm			LeftHand			LeftHandThumb1			LeftHandThumb2			LeftHandThumb3			LeftHandThumb3_End			LeftInHandIndex			LeftHandIndex1			LeftHandIndex2			LeftHandIndex3			LeftHandIndex3_End			LeftInHandMiddle			LeftHandMiddle1			LeftHandMiddle2			LeftHandMiddle3			LeftHandMiddle3_End			LeftInHandRing			LeftHandRing1			LeftHandRing2			LeftHandRing3			LeftHandRing3_End			LeftInHandPinky			LeftHandPinky1			LeftHandPinky2			LeftHandPinky3			LeftHandPinky3_End			
		X1	Y1	Z1	X2	Y2	Z2	X3	Y3	Z3	X4	Y4	Z4	X5	Y5	Z5	X6	Y6	Z6	X7	Y7	Z7	X8	Y8	Z8	X9	Y9	Z9	X10	Y10	Z10	X11	Y11	Z11	X12	Y12	Z12	X13	Y13	Z13	X14	Y14	Z14	X15	Y15	Z15	X16	Y16	Z16	X17	Y17	Z17	X18	Y18	Z18	X19	Y19	Z19	X20	Y20	Z20	X21	Y21	Z21	X22	Y22	Z22	X23	Y23	Z23	X24	Y24	Z24	X25	Y25	Z25	X26	Y26	Z26	X27	Y27	Z27	X28	Y28	Z28	X29	Y29	Z29	X30	Y30	Z30	X31	Y31	Z31	X32	Y32	Z32	X33	Y33	Z33	X34	Y34	Z34	X35	Y35	Z35	X36	Y36	Z36	X37	Y37	Z37	X38	Y38	Z38	X39	Y39	Z39	X40	Y40	Z40	X41	Y41	Z41	X42	Y42	Z42	X43	Y43	Z43	X44	Y44	Z44	X45	Y45	Z45	X46	Y46	Z46	X47	Y47	Z47	X48	Y48	Z48	X49	Y49	Z49	X50	Y50	Z50	X51	Y51	Z51	X52	Y52	Z52	X53	Y53	Z53	X54	Y54	Z54	X55	Y55	Z55	X56	Y56	Z56	X57	Y57	Z57	X58	Y58	Z58	X59	Y59	Z59	X60	Y60	Z60	X61	Y61	Z61	X62	Y62	Z62	X63	Y63	Z63	X64	Y64	Z64	X65	Y65	Z65	X66	Y66	Z66	X67	Y67	Z67	X68	Y68	Z68	X69	Y69	Z69	X70	Y70	Z70	X71	Y71	Z71	X72	Y72	Z72	

45	0.183	2921.0129	906.651	56.2195	3004.5265853873775	893.901810364146	3.874274921538724	2922.7267974848437	493.8871620587555	-90.60759044853516	2896.4260640064253	107.23977818762155	-159.69000153467067	2821.3623120082843	32.35460680308111	-0.6298476942524025	2846.8402367149774	891.1073395031565	120.21934155171687	2780.550612304976	487.8190371983284	212.84621825215214	2742.4885662146935	56.308515137977864	297.58016028036116	2607.8732007194817	-16.564381820854067	182.5713243139163	2876.674277785891	1032.8475238770986	5.3443070155313555	2827.4371706544116	1098.5811300379635	-46.135096940035105	2770.62012922764	1160.019764880199	-102.56247181148859	2710.561979818539	1209.7027317633494	-160.60356317542	2645.9993498809495	1263.0993338673713	-221.94011215071436	2585.947405783673	1311.5671239650844	-276.948044356646	2468.835320878431	1407.0637410578727	-328.9291981311542	2691.236251555986	1247.9268900884292	-223.42013605591788	2752.3103772535746	1237.9392488567312	-336.9260097591689	2764.922538046531	960.5478210464413	-327.4637227512614	2823.1944605997874	718.0460641107876	-382.95251597926915	2826.0929150612296	698.5167466843558	-394.0818373871445	2815.7142411296322	685.3515595773135	-404.53187278611694	2809.1887089437487	674.7983595861521	-410.52875381640854	2804.3493421426874	664.8158170767708	-414.43263101321435	2830.5422030285927	690.2535390302965	-390.32561152028524	2837.159069332089	649.1672326969259	-397.6541645097671	2832.86337029072	628.6233321300375	-403.75283776595296	2824.2218660568296	624.5851528459865	-408.5670180160861	2813.0417638877275	627.1340773108906	-413.24151699794874	2831.798649643838	688.2992434771387	-386.63517595064354	2838.934692038196	647.1655237028581	-391.78678323551566	2834.3804351566323	624.6334961785587	-397.93218027323064	2824.0186835543004	619.706643546337	-403.49583592332255	2811.8166899386274	622.4689278701504	-408.4917322767709	2832.613754327741	687.8680448009975	-383.82381880318025	2839.9983440754304	650.3402038666003	-385.950325455111	2836.1526798533755	630.6500504548956	-390.77801721345946	2826.2236949794933	625.8705640540923	-395.86386098393416	2814.7818973283374	628.4549525445178	-400.4282213177798	2832.6030495054792	689.3408638710696	-380.5055948503776	2839.6947560658587	655.4832461168284	-380.3554921510694	2836.775573404907	639.8006823119345	-383.3874154585954	2829.610872953203	636.3554189246098	-386.69365398856365	2819.519916131708	638.6683186400534	-390.50478186493393	2642.9048705564624	1243.3728382251554	-178.16364359081933	2574.850340540458	1178.2604701526718	-82.31250441091808	2694.244539203146	992.4411510287416	-209.30430979226693	2858.153502653705	808.015959613193	-327.0219906427984	2843.7208270839633	798.3842155778807	-347.66016128194224	2839.0112297160467	778.7397648065286	-382.4496750639881	2836.192454087328	763.061681231144	-406.92233537631824	2834.2369202979507	748.2825769478401	-427.53394019712783	2842.954292277125	790.4722518613113	-349.44730922033494	2826.1773958743697	755.6748961191817	-388.89827682490414	2820.3506121347223	730.7494788392012	-421.61648893904953	2820.8645518813537	719.191137412433	-441.58590346979764	2824.0801041575633	712.2804655549593	-457.8639948129248	2845.0700094175672	786.21627561753	-348.99143490798036	2829.8490512401063	749.9741294314687	-387.22264080515384	2823.831757425069	722.3259545606038	-422.7431757907862	2824.6154017642184	708.1655165196349	-446.74841547475063	2828.213327937161	700.4991213128724	-464.5172452298067	2846.933172696832	784.0846284167965	-347.61863420604385	2834.7348289546176	749.7166277493152	-380.5610042009291	2829.8632002721824	725.216113566999	-411.2755209064527	2830.817217793564	711.3436360042895	-434.3001984212034	2834.2940713198836	704.0340706790796	-450.9456386736256	2850.036976024334	782.7365445289586	-345.24008028542977	2840.5564386316646	750.3292209150592	-373.8533591358043	2837.291091788822	730.2325182052298	-397.9223438044847	2838.2944472714034	719.8828462420214	-414.4621681849361	2841.551343467328	713.2747935568345	-429.06086785940994
46	0.188	2921.0129	906.651	56.2195	3004.425084736984	893.852788395236	3.8376439932059307	2922.6412226160905	493.81731340584906	-90.5460427708701	2896.5668748389467	107.21975424729908	-159.72096161069905	2821.5007720464005	32.32242470561877	-0.6679704561913666	2846.935180869614	891.1544709666072	120.25623409251057	2780.6850726811567	487.86106624152933	212.88322787651202	2742.594429919728	56.34758623044647	297.55340126404803	2607.996950714739	-16.54033129290987	182.53693031553144	2876.706073372189	1032.8576095278522	5.344763826470757	2827.6435809487402	1098.782475836796	-46.07435489205172	2770.8548528897436	1160.2654148082584	-102.48619030977078	2710.7872648633293	1209.9562713784658	-160.51097505753788	2646.2134717702747	1263.359116899263	-221.8302692296917	2586.1512413256137	1311.8316721722178	-276.822066389322	2469.0232159394923	1407.3152661602837	-328.7821762370493	2691.4256958899527	1248.1591101375357	-223.3233255116567	2752.5603085071716	1238.252289196382	-336.8317951995123	2764.9991940372765	960.9799848100288	-327.4559684337939	2823.0485761569726	718.9121146829951	-383.4791696260892	2825.971528882591	699.5208323389193	-394.6503488969849	2815.588481233613	686.4489373135186	-405.17818665290235	2809.0537744699286	675.9516691656148	-411.23604887316316	2804.201514391538	666.0080229259465	-415.19657967717046	2830.402294656815	691.2417557173962	-390.921858887576	2837.0003361993877	650.2919053531122	-398.38406262459677	2832.685098810236	629.8223323204104	-404.57829425561226	2824.0343672571607	625.8158096112037	-409.4373742345367	2812.848597505268	628.3811211972991	-414.1392505964982	2831.64241741403	689.2571493478487	-387.2453865529013	2838.751271758354	648.2401365479571	-392.53490347137455	2834.173593018752	625.784747085455	-398.78598592991756	2823.7997005344446	620.8939436967165	-404.4044894698696	2811.591015490904	623.6731151052463	-409.43067000597796	2832.4464908856294	688.8012327603059	-384.44052868192705	2839.7972022696276	651.3570458542962	-386.69640338742664	2835.929019624562	631.7289377075713	-391.61743608850514	2825.9872059044988	626.9817001572882	-396.75683543186534	2814.538587565622	629.5807709626597	-401.34997924495366	2832.423448410462	690.2402107837056	-381.12556751972943	2839.476541385111	656.4390959005594	-381.09632741906347	2836.5361907843653	640.798435503945	-384.2043418503689	2829.36061586097	637.372930956269	-387.55029541694813	2819.2627436350904	639.6966710206983	-391.3872964868311	2643.152964497514	1243.6569729101593	-178.052853614627	2575.0845117171925	1178.560564706129	-82.22555390194442	2694.2951851789394	992.7816242418252	-209.2831775811214	2858.0876685589783	808.5349939030567	-327.04849120260053	2843.685757712595	798.950025566034	-347.6988513756087	2838.9619026800697	779.3008491388983	-382.4618281143784	2836.1231983575117	763.6181880980533	-406.9107203468225	2834.142497081003	748.8341667207486	-427.49798763565724	2842.887786890268	791.0434122353704	-349.47045578561455	2826.065908663885	756.2963815777699	-388.88675250610817	2820.1993501301313	731.3756881392837	-421.5685872698615	2820.6955473857606	719.8007973382544	-441.51565897035385	2823.901127042262	712.8632817655078	-457.77544179800657	2844.9774714729933	786.7807445805246	-349.0008253852775	2829.698560076713	750.5840739678458	-387.190776543996	2823.6345647470484	722.9399696174568	-422.669897903668	2824.3952205541596	708.7590445192238	-446.6473576177303	2827.981463938602	701.0630250210389	-464.39575388128867	2846.8234016007523	784.6433958983584	-347.6192728953194	2834.558195532914	750.3121044186072	-380.5173156558354	2829.642580489193	725.8139549480604	-411.19404528014593	2830.5726803893817	711.9210878444659	-434.19102765004084	2834.0377235938204	704.5833705360253	-450.8168299767639	2849.908553907179	783.2848455283522	-345.2309835732569	2840.355217625756	750.9057924931542	-373.79787128112446	2837.0498198967944	730.8089760030028	-397.8341499697399	2838.0333947054573	720.4434604931123	-414.35258972931047	2841.2784849335953	713.8099104256457	-428.9332118796801
47	0.192	2921.0129	906.651	56.2195	3004.3167869125814	893.7997406703865	3.795336092433233	2922.5449666852232	493.74459212256943	-90.4927002213687	2896.7043075802685	107.19734382658116	-159.75929045042466	2821.635935052465	32.28690887003583	-0.713882279817635	2847.0368137036626	891.2056287320634	120.29900967747086	2780.8304329496477	487.90723311790305	212.9298212711437	2742.6977683457717	56.39384254947525	297.54264066906165	2608.120446471274	-16.5125430067836	182.51833180589003	2876.7385061350788	1032.8678137875752	5.344507176280071	2827.78649172181	1098.9172801382488	-46.03084138653896	2771.068906063412	1160.4954469169625	-102.4154936914511	2710.991021284276	1210.1946692332785	-160.42253439850896	2646.4054844584894	1263.604568670591	-221.72309528834882	2586.3327086578	1312.082926178609	-276.6973850570741	2469.185923464025	1407.5485808776	-328.64023686094924	2691.590606115801	1248.373671381243	-223.230630254341	2752.7787357602433	1238.5477786996278	-336.7424168702565	2765.098790685099	961.3785695945485	-327.49325981122894	2822.9753665739167	719.7509690113023	-384.03888522704614	2825.927728950415	700.4975262469308	-395.249867024942	2815.54486147112	687.5149854327409	-405.8539149858924	2809.004101095501	677.0709858206162	-411.971961375811	2804.1415069643895	667.1640833122129	-415.98874851490285	2830.340351610041	692.2032549480867	-391.5500703392527	2836.9269986584536	651.3891164748122	-399.14528635530064	2832.596814953533	630.9911708076871	-405.43448758955697	2823.938857366672	627.0134217025543	-410.3378174374799	2812.748500656099	629.5919216221197	-415.0663413624522	2831.5637278226027	690.1884753634534	-387.8884250882281	2838.6524132548757	649.2875184341833	-393.31569619986783	2834.0562428553003	626.9058386619698	-399.6719377448537	2823.6725853036874	622.0476145684067	-405.3445603802368	2811.4583722180755	624.8401773602047	-410.400253986611	2832.356289295706	689.7079792441002	-385.090696222283	2839.6790153489374	652.3470489494944	-387.4763569746352	2835.7925176629165	632.7784528125188	-392.4903903085052	2825.840117581482	628.0601273844148	-397.68270542651686	2814.3857486955712	630.6705984267307	-402.30393744890057	2832.320083809024	691.1131200431188	-381.7797161927766	2839.3394856695973	657.3682215426751	-381.8721756207983	2836.381161655765	641.7674668386117	-385.05619184431896	2829.1962643838683	638.3593026116167	-388.4414828694186	2819.0923775109754	640.6909838976046	-392.30379173815396	2643.38195080951	1243.929686312224	-177.94432104569262	2575.306889765753	1178.8690924961522	-82.13873329774643	2694.3068672122913	993.1145631051404	-209.245769733011	2858.011239875186	809.0797531235553	-327.0825240185186	2843.6392655409504	799.5394796511698	-347.74524237413607	2838.9045849421595	779.8798256157729	-382.4783302157631	2836.0486373756175	764.1886246848036	-406.89970132261817	2834.0452604422494	749.3964196917026	-427.4582880376017	2842.8104967872864	791.6385348544411	-349.49608514674514	2825.9459399349294	756.9377633604248	-388.86536146603277	2820.043055871929	732.0170738460237	-421.50300371395844	2820.524248832928	720.4219421954916	-441.4254157455852	2823.722522714759	713.4540165841137	-457.66668745417456	2844.8749605112366	787.3693454218699	-349.0093052902018	2829.5407808983864	751.2142766469459	-387.14412042069205	2823.433949559586	723.5691259582134	-422.5728937785165	2824.1749692129797	709.3632759933934	-446.5195834775396	2827.7524719716753	701.6337374848798	-464.2472295751548	2846.704155780822	785.2265376097693	-347.6168991806119	2834.3748783026576	750.9287483516481	-380.456292526848	2829.418746409283	726.4285436111909	-411.0870538196815	2830.3282153217892	712.5110273162411	-434.0532482156287	2833.7842399136325	705.1415059478263	-450.6590154088653	2849.77129364909	783.8577705332547	-345.216964484193	2840.1480563835503	751.5042625103619	-373.72307715394874	2836.8055301224467	731.4038683895433	-397.7195475679921	2837.771791404705	721.0194388418744	-414.21407995542836	2841.0075884728994	714.3571779994222	-428.77611943064903
48	0.196	2921.0129	906.651	56.2195	3004.2027414536037	893.7436474488468	3.7483007232156473	2922.4411715787446	493.6704377183359	-90.4502156356284	2896.8416898052606	107.17395831945534	-159.80731822099818	2821.771301365206	32.249566967356685	-0.7697862046759472	2847.1440517265205	891.2597560273106	120.3465506546365	2780.9852654218857	487.95677911774277	212.98595861529364	2742.798995759932	56.44632965788552	297.5479557848806	2608.244309744306	-16.482523910141758	182.51573320259834	2876.7717045475347	1032.8784515051198	5.344250935075794	2827.8648384066355	1098.9839271999083	-46.00489520015027	2771.2571861861725	1160.7022992184216	-102.35255781803025	2711.171876083151	1210.4126828471096	-160.34225359170884	2646.5779010005176	1263.8329599697865	-221.62448086716256	2586.497715045498	1312.3203944650513	-276.5816047159856	2469.3288766000337	1407.762339341286	-328.51164460414117	2691.735282498941	1248.5703135780623	-223.14573091664442	2752.9700787444676	1238.8267135352228	-336.6621849984954	2765.2253728899727	961.7435734558227	-327.5792189180452	2822.9740892153422	720.5609382760782	-384.6368497139248	2825.958957095003	701.4446901159014	-395.88638326930044	2815.5792520950004	688.5475164695671	-406.5648787187049	2809.034554056284	678.1540931771035	-412.74213057113974	2804.1634238515926	668.2817623995	-416.8145714838559	2830.353944106243	693.1358291007732	-392.2161776653319	2836.9344931200358	652.4560903903628	-399.94427375300506	2832.592609128849	632.1269294176302	-406.3277164436011	2823.9287589539917	628.1751608098491	-411.2743016652892	2812.7344571064114	630.7638449704356	-416.0282841153311	2831.560475475651	691.0910602993741	-388.57001121614076	2838.6341051981994	650.3049790983835	-394.135260325644	2834.022954536568	627.9939333847254	-400.59595224504807	2823.631125972245	623.1649310345592	-406.32153490083897	2811.4120797530354	625.9676045348173	-411.4054609628406	2832.3413264844057	690.5861676325115	-385.7798830170666	2839.640493667229	653.3076534539075	-388.29596411736816	2835.738701692096	633.7959170536959	-393.40246731798385	2825.777232301697	629.103280325943	-398.6466265710175	2814.3177561282614	631.722074052689	-403.2947645122567	2832.291529763822	691.9575637075131	-382.47336867903323	2839.2810577871487	658.2682343381344	-382.6884346936112	2836.307098501028	642.7053088784171	-385.9481606398759	2829.1139458215885	639.3121570364551	-389.37207225637144	2819.0045921277933	641.6490662116436	-393.25867815470946	2643.589762791098	1244.183952474863	-177.84484620375267	2575.5152377401596	1179.1786448120954	-82.05887776398755	2694.2821081690954	993.4359103883619	-209.2006875310126	2857.905560683614	809.6376513859096	-327.1403559970158	2843.563581277831	800.1409813885508	-347.8171186176992	2838.823803912086	780.4632613010752	-382.51632468378887	2835.9546358471475	764.7579923370616	-406.9055288178276	2833.931965623079	749.9527866531861	-427.4299657700753	2842.703571620037	792.2452907319098	-349.54060949256746	2825.798333529639	757.5851543835067	-388.84869817640737	2819.8635490786924	732.6575709115205	-421.43259416575125	2820.333972425947	721.0369070225861	-441.3271935231906	2823.5294461810618	714.0335150178493	-457.5492243805158	2844.7429801956864	787.9689713181632	-349.0321134680723	2829.3555693804715	751.8496904770224	-387.09550392551495	2823.2107496639846	724.1959010437708	-422.4629482539816	2823.937251276385	709.9587106876543	-446.3747972955114	2827.5109482633584	702.1901050284052	-464.08076491773534	2846.5554764987305	785.8204457692815	-347.6259709273318	2834.163895860105	751.5508044078288	-380.3895616786301	2829.171489195117	727.0418685288599	-410.9642404732727	2830.065272728907	713.0934835947535	-433.895432586366	2833.5169230485294	705.686926778249	-450.4801548626934	2849.604821489594	784.4411093846852	-345.211621342291	2839.9133407357317	752.1081092546813	-373.63945314569145	2836.537101403212	731.9987233950883	-397.5872450015639	2837.4896655931198	721.5908102777456	-414.0544227765434	2840.7202885265597	714.8951861391399	-428.59677044789174
